<?xml version="1.0" encoding="UTF-8" standalone="no"?>
<!-- Created with Inkscape (http://www.inkscape.org/) -->

<svg
   id="svg2"
   viewBox="0 0 512 512"
   version="1.1"
   inkscape:version="1.2.2 (b0a8486541, 2022-12-01)"
   sodipodi:docname="CatDot.svg"
   xmlns:inkscape="http://www.inkscape.org/namespaces/inkscape"
   xmlns:sodipodi="http://sodipodi.sourceforge.net/DTD/sodipodi-0.dtd"
   xmlns="http://www.w3.org/2000/svg"
   xmlns:svg="http://www.w3.org/2000/svg"
   xmlns:rdf="http://www.w3.org/1999/02/22-rdf-syntax-ns#"
   xmlns:cc="http://creativecommons.org/ns#"
   xmlns:dc="http://purl.org/dc/elements/1.1/">
  <defs
     id="defs18585" />
  <sodipodi:namedview
     id="namedview18583"
     pagecolor="#ffffff"
     bordercolor="#000000"
     borderopacity="0.25"
     inkscape:showpageshadow="2"
     inkscape:pageopacity="0.0"
     inkscape:pagecheckerboard="0"
     inkscape:deskcolor="#d1d1d1"
     showgrid="false"
     inkscape:zoom="1.1220742"
     inkscape:cx="216.56322"
     inkscape:cy="260.67795"
     inkscape:window-width="1920"
     inkscape:window-height="1009"
     inkscape:window-x="0"
     inkscape:window-y="32"
     inkscape:window-maximized="1"
     inkscape:current-layer="layer1"
     inkscape:lockguides="true" />
  <g
     id="layer1"
     transform="translate(1196.5 6491.7)">
    <path
       id="path3064"
       style="fill:#fe1c7b;fill-opacity:1"
       d="m25417-6627.6a25966 25966 0 1 1 -51931 0 25966 25966 0 1 1 51931 0z"
       transform="matrix(.0098592 0 0 .0098592 -935.14 -6170.3)" />
    <path
       id="path3868"
       style="fill:#ffffff"
       d="m25417-6627.6a25966 25966 0 1 1 -51931 0 25966 25966 0 1 1 51931 0z"
       transform="matrix(.0090504 0 0 .0090504 -935.58 -6175.7)" />
    <path
       id="path3870"
       style="fill:#fe1c7b;fill-opacity:1"
       d="m25417-6627.6a25966 25966 0 1 1 -51931 0 25966 25966 0 1 1 51931 0z"
       transform="matrix(.0084727 0 0 .0084727 -935.9 -6179.5)" />
    <g
       id="g3834"
       transform="matrix(0.74144,0,0,0.74144,-238.73656,-1612.011)">
      <g
         id="g3001"
         style="fill:#ffffff;fill-rule:evenodd"
         transform="matrix(0.01466096,0,0,0.01466096,-906.00808,-6361.5375)">
        <g
           id="Default"
           style="fill:#ffffff"
           transform="translate(-4115.3,-5381.9)">
          <desc
             id="desc3128">Master slide</desc>
        </g>
        <path
           id="path3225"
           style="fill:#ffffff;fill-rule:nonzero"
           d="m 10880,10820 a 1760,3040 0 1 1 -3520,0 1760,3040 0 1 1 3520,0 z"
           transform="translate(-4275.3,-5381.9)" />
        <path
           id="path3995"
           style="fill:#ffffff;fill-rule:nonzero"
           d="m 10880,10820 a 1760,3040 0 1 1 -3520,0 1760,3040 0 1 1 3520,0 z"
           transform="translate(-495.3,-5271.9)" />
        <path
           id="path3997"
           style="fill:#ffffff;fill-rule:nonzero"
           d="m 10880,10820 a 1760,3040 0 1 1 -3520,0 1760,3040 0 1 1 3520,0 z"
           transform="matrix(0.73642,-0.34496,0.34496,0.73642,-8523.9,4151.1)" />
        <path
           id="path3999"
           style="fill:#ffffff;fill-rule:nonzero"
           d="m 10880,10820 a 1760,3040 0 1 1 -3520,0 1760,3040 0 1 1 3520,0 z"
           transform="matrix(-0.76816,-0.35983,-0.35983,0.76816,22424,3968.3)" />
        <path
           id="path4007"
           style="fill:#ffffff;fill-rule:nonzero"
           d="m 6684.7,9508.1 c -743.85,0 -1494.5,251.73 -1684.8,825.53 -190.3,573.8 -340.68,1275.9 -827.19,1762.4 -486.51,486.51 -821.05,453.11 -1463.7,670.55 -642.65,217.44 -1324.3,1063.4 -1324.3,2091.5 0,1028.1 1200.2,2192.7 1806.8,2192.7 606.58,0 1023.3,-33.413 1220,-222.68 196.71,-189.26 1188.5,-970 2123.2,-970 934.7,0 1984.6,1030.3 2262.5,1170.8 277.83,140.47 768.71,83.54 1264.8,65.862 496.11,-17.678 1647.7,-1127 1647.7,-2086.6 0,-959.63 -354.46,-1702 -917.16,-1945.3 -562.7,-243.3 -1022.5,-93.345 -1545.8,-616.7 -523.36,-523.36 -558.82,-1678.9 -867.88,-2112.1 -309.06,-433.26 -950.29,-825.82 -1694.1,-825.82 z" />
        <path
           id="path4153"
           style="fill:#ffffff;fill-rule:nonzero"
           d="m 4458.4,2600 c 0,0 388.91,-2669.3 371.23,-2598.6 -17.7,70.691 512.6,2793.1 512.6,2793.1 z" />
        <path
           id="path4155"
           style="fill:#ffffff;fill-rule:nonzero"
           d="m 8365.1,2776.8 c 0,0 388.91,-2669.3 371.23,-2598.6 -17.678,70.711 512.65,2793.1 512.65,2793.1 z" />
        <path
           id="path4157"
           style="fill:#ffffff;fill-rule:nonzero"
           d="M 1117.3,6842.6 C 524.81,5900.68 693.87,5106.5 710.71,4473.8 c -948.74,219.19 -853.35,3167 -265.17,3341.1 z" />
        <path
           id="path4159"
           style="fill:#ffffff;fill-rule:nonzero"
           d="m 12286,6842.6 c 592.49,-941.92 423.43,-1736.1 406.59,-2368.8 948.74,219.19 853.35,3167 265.16,3341.1 z" />
      </g>
      <g
         id="g3026"
         style="fill:#ffffff;fill-rule:evenodd"
         transform="matrix(0.0153211,0,0,0.0153211,-1183.6045,-6328.3038)">
        <g
           id="Default-2"
           style="fill:#ffffff"
           transform="translate(-4429.6,-8277.8)">
          <desc
             id="desc3128-3">Master slide</desc>
        </g>
        <path
           id="path3225-9"
           style="fill:#ffffff;fill-rule:nonzero"
           d="m 10880,10820 a 1760,3040 0 1 1 -3520,0 1760,3040 0 1 1 3520,0 z"
           transform="translate(-4589.6,-7780)" />
        <path
           id="path3995-5"
           style="fill:#ffffff;fill-rule:nonzero"
           d="m 10880,10820 a 1760,3040 0 1 1 -3520,0 1760,3040 0 1 1 3520,0 z"
           transform="translate(-809.6,-7624.7)" />
        <path
           id="path3997-3"
           style="fill:#ffffff;fill-rule:nonzero"
           d="m 10880,10820 a 1760,3040 0 1 1 -3520,0 1760,3040 0 1 1 3520,0 z"
           transform="matrix(0.8006,-0.14261,0.14261,0.8006,-7369.9,-832.22)" />
        <path
           id="path3999-4"
           style="fill:#ffffff;fill-rule:nonzero"
           d="m 10880,10820 a 1760,3040 0 1 1 -3520,0 1760,3040 0 1 1 3520,0 z"
           transform="matrix(-0.83511,-0.14875,-0.14875,0.83511,20527,-1215)" />
        <path
           id="path4007-6"
           style="fill:#ffffff;fill-rule:nonzero"
           d="m 6370.4,6612.2 c -743.85,0 -1494.5,251.73 -1684.8,825.53 -190.3,573.8 -340.68,1275.9 -827.19,1762.4 -486.51,486.5 -821.04,453.09 -1463.7,670.53 -642.65,217.44 -1324.3,1063.4 -1324.3,2091.5 0,1028.1 1211.6,2192.7 1806.8,2192.7 595.24,0 991.82,-30.958 1092.2,-272 100.34,-241.04 300.92,-441.62 548.34,-441.62 247.42,0 448,200.58 617.64,420.92 169.64,220.34 562.22,317.83 1021.8,317.83 459.58,0 986.65,-59.119 1193.6,-305.84 207,-246.72 282.02,-432.91 526.91,-432.91 244.9,0 448,200.58 665.49,516.38 217.49,315.8 708.39,258.86 1204.5,241.18 496.11,-17.677 1647.7,-1127 1647.7,-2086.6 0,-959.63 -354.46,-1702 -917.16,-1945.3 -562.69,-243.3 -1022.5,-93.332 -1545.8,-616.69 -523.36,-523.36 -558.81,-1678.9 -867.88,-2112.2 -309.06,-433.26 -950.3,-825.81 -1694.2,-825.81 z" />
      </g>
    </g>
  </g>
  <metadata
     id="metadata18580">
    <rdf:RDF>
      <cc:Work>
        <dc:format>image/svg+xml</dc:format>
        <dc:type
           rdf:resource="http://purl.org/dc/dcmitype/StillImage" />
        <cc:license
           rdf:resource="http://creativecommons.org/licenses/publicdomain/" />
        <dc:publisher>
          <cc:Agent
             rdf:about="http://openclipart.org/">
            <dc:title>Openclipart</dc:title>
          </cc:Agent>
        </dc:publisher>
        <dc:date>2012-06-03T13:48:57</dc:date>
        <dc:description>But what about tigers?</dc:description>
        <dc:source>https://openclipart.org/detail/170372/cat-dog-mouse-unification-peace-logo-by-qubodup-170372</dc:source>
        <dc:creator>
          <cc:Agent>
            <dc:title>qubodup</dc:title>
          </cc:Agent>
        </dc:creator>
        <dc:subject>
          <rdf:Bag>
            <rdf:li>alliance</rdf:li>
            <rdf:li>animals</rdf:li>
            <rdf:li>can not hug every cat</rdf:li>
            <rdf:li>cat</rdf:li>
            <rdf:li>cats</rdf:li>
            <rdf:li>dog</rdf:li>
            <rdf:li>logo</rdf:li>
            <rdf:li>mice</rdf:li>
            <rdf:li>mouse</rdf:li>
          </rdf:Bag>
        </dc:subject>
      </cc:Work>
      <cc:License
         rdf:about="http://creativecommons.org/licenses/publicdomain/">
        <cc:permits
           rdf:resource="http://creativecommons.org/ns#Reproduction" />
        <cc:permits
           rdf:resource="http://creativecommons.org/ns#Distribution" />
        <cc:permits
           rdf:resource="http://creativecommons.org/ns#DerivativeWorks" />
      </cc:License>
    </rdf:RDF>
  </metadata>
</svg>
