<?xml version="1.0" encoding="UTF-8" standalone="no"?>
<!-- Created with Inkscape (http://www.inkscape.org/) -->

<svg
   width="139.43602mm"
   height="37.079842mm"
   viewBox="0 0 139.43602 37.079842"
   version="1.1"
   id="svg5"
   xml:space="preserve"
   xmlns="http://www.w3.org/2000/svg"
   xmlns:svg="http://www.w3.org/2000/svg"><defs
     id="defs2" /><g
     id="layer2"
     style="fill:#000000;fill-opacity:1"
     transform="translate(-67.988371,-65.909082)"><rect
       style="display:inline;fill:#000000;fill-opacity:1;stroke:#bc1f1f;stroke-width:0;stroke-linecap:round;stroke-linejoin:round;stroke-miterlimit:5.2"
       id="rect1963"
       width="139.43602"
       height="37.079834"
       x="67.988373"
       y="65.909081" /></g><g
     id="layer3"
     transform="translate(-67.988371,-65.909082)"><g
       id="g18334"
       transform="translate(-0.08478647,-0.08939327)"><text
         xml:space="preserve"
         style="font-style:normal;font-variant:normal;font-weight:bold;font-stretch:normal;font-size:7.76111px;line-height:0;font-family:'Courier New';-inkscape-font-specification:'Courier New, Bold';font-variant-ligatures:normal;font-variant-caps:normal;font-variant-numeric:normal;font-variant-east-asian:normal;fill:#fe1c7b;fill-opacity:1;stroke:#bc1f1f;stroke-width:0;stroke-linecap:round;stroke-linejoin:round;stroke-miterlimit:5.2"
         x="73.715591"
         y="98.426773"
         id="text17302"><tspan
           id="tspan17300"
           style="font-style:normal;font-variant:normal;font-weight:bold;font-stretch:normal;font-size:7.76111px;font-family:'Courier New';-inkscape-font-specification:'Courier New, Bold';font-variant-ligatures:normal;font-variant-caps:normal;font-variant-numeric:normal;font-variant-east-asian:normal;stroke-width:0"
           x="73.715591"
           y="98.426773">ONE PET APP TO RULE THEM ALL</tspan></text><g
         id="g18288"
         transform="translate(1.4921789)"><text
           xml:space="preserve"
           style="font-style:normal;font-variant:normal;font-weight:normal;font-stretch:normal;font-size:22.5778px;line-height:0;font-family:'Comic Sans MS';-inkscape-font-specification:'Comic Sans MS, Normal';font-variant-ligatures:normal;font-variant-caps:normal;font-variant-numeric:normal;font-variant-east-asian:normal;fill:#fe1c7b;fill-opacity:1;stroke:#bc1f1f;stroke-width:0;stroke-linecap:round;stroke-linejoin:round;stroke-miterlimit:5.2"
           x="87.638344"
           y="88.0979"
           id="text17248"><tspan
             id="tspan17246"
             style="font-style:normal;font-variant:normal;font-weight:normal;font-stretch:normal;font-size:22.5778px;font-family:'Comic Sans MS';-inkscape-font-specification:'Comic Sans MS, Normal';font-variant-ligatures:normal;font-variant-caps:normal;font-variant-numeric:normal;font-variant-east-asian:normal;stroke-width:0"
             x="87.638344"
             y="88.0979">TIGGROW</tspan></text><g
           id="layer1-5"
           transform="matrix(0.03661263,0,0,0.03661263,113.97645,308.27075)"><path
             id="path3064"
             style="fill:#fe1c7b;fill-opacity:1"
             d="m 25417,-6627.6 a 25966,25966 0 1 1 -51931,0 25966,25966 0 1 1 51931,0 z"
             transform="matrix(0.0098592,0,0,0.0098592,-935.14,-6170.3)" /><path
             id="path3868"
             style="fill:#000000;fill-opacity:1"
             d="m 25417,-6627.6 a 25966,25966 0 1 1 -51931,0 25966,25966 0 1 1 51931,0 z"
             transform="matrix(0.0090504,0,0,0.0090504,-935.58,-6175.7)" /><path
             id="path3870"
             style="fill:#fe1c7b;fill-opacity:1"
             d="m 25417,-6627.6 a 25966,25966 0 1 1 -51931,0 25966,25966 0 1 1 51931,0 z"
             transform="matrix(0.0084727,0,0,0.0084727,-935.9,-6179.5)" /><g
             id="g3834"
             transform="matrix(0.74144,0,0,0.74144,-238.73656,-1612.011)"><g
               id="g3001"
               style="fill:#000000;fill-opacity:1;fill-rule:evenodd"
               transform="matrix(0.01466096,0,0,0.01466096,-906.00808,-6361.5375)"><g
                 id="Default"
                 style="fill:#000000;fill-opacity:1"
                 transform="translate(-4115.3,-5381.9)"><desc
                   id="desc3128">Master slide</desc></g><path
                 id="path3225"
                 style="fill:#000000;fill-opacity:1;fill-rule:nonzero"
                 d="m 10880,10820 a 1760,3040 0 1 1 -3520,0 1760,3040 0 1 1 3520,0 z"
                 transform="translate(-4275.3,-5381.9)" /><path
                 id="path3995"
                 style="fill:#000000;fill-opacity:1;fill-rule:nonzero"
                 d="m 10880,10820 a 1760,3040 0 1 1 -3520,0 1760,3040 0 1 1 3520,0 z"
                 transform="translate(-495.3,-5271.9)" /><path
                 id="path3997"
                 style="fill:#000000;fill-opacity:1;fill-rule:nonzero"
                 d="m 10880,10820 a 1760,3040 0 1 1 -3520,0 1760,3040 0 1 1 3520,0 z"
                 transform="matrix(0.73642,-0.34496,0.34496,0.73642,-8523.9,4151.1)" /><path
                 id="path3999"
                 style="fill:#000000;fill-opacity:1;fill-rule:nonzero"
                 d="m 10880,10820 a 1760,3040 0 1 1 -3520,0 1760,3040 0 1 1 3520,0 z"
                 transform="matrix(-0.76816,-0.35983,-0.35983,0.76816,22424,3968.3)" /><path
                 id="path4007"
                 style="fill:#000000;fill-opacity:1;fill-rule:nonzero"
                 d="m 6684.7,9508.1 c -743.85,0 -1494.5,251.73 -1684.8,825.53 -190.3,573.8 -340.68,1275.9 -827.19,1762.4 -486.51,486.51 -821.05,453.11 -1463.7,670.55 -642.65,217.44 -1324.3,1063.4 -1324.3,2091.5 0,1028.1 1200.2,2192.7 1806.8,2192.7 606.58,0 1023.3,-33.413 1220,-222.68 196.71,-189.26 1188.5,-970 2123.2,-970 934.7,0 1984.6,1030.3 2262.5,1170.8 277.83,140.47 768.71,83.54 1264.8,65.862 496.11,-17.678 1647.7,-1127 1647.7,-2086.6 0,-959.63 -354.46,-1702 -917.16,-1945.3 -562.7,-243.3 -1022.5,-93.345 -1545.8,-616.7 -523.36,-523.36 -558.82,-1678.9 -867.88,-2112.1 -309.06,-433.26 -950.29,-825.82 -1694.1,-825.82 z" /><path
                 id="path4153"
                 style="fill:#000000;fill-opacity:1;fill-rule:nonzero"
                 d="m 4458.4,2600 c 0,0 388.91,-2669.3 371.23,-2598.6 -17.7,70.691 512.6,2793.1 512.6,2793.1 z" /><path
                 id="path4155"
                 style="fill:#000000;fill-opacity:1;fill-rule:nonzero"
                 d="m 8365.1,2776.8 c 0,0 388.91,-2669.3 371.23,-2598.6 -17.678,70.711 512.65,2793.1 512.65,2793.1 z" /><path
                 id="path4157"
                 style="fill:#000000;fill-opacity:1;fill-rule:nonzero"
                 d="M 1117.3,6842.6 C 524.81,5900.68 693.87,5106.5 710.71,4473.8 c -948.74,219.19 -853.35,3167 -265.17,3341.1 z" /><path
                 id="path4159"
                 style="fill:#000000;fill-opacity:1;fill-rule:nonzero"
                 d="m 12286,6842.6 c 592.49,-941.92 423.43,-1736.1 406.59,-2368.8 948.74,219.19 853.35,3167 265.16,3341.1 z" /></g><g
               id="g3026"
               style="fill:#000000;fill-opacity:1;fill-rule:evenodd"
               transform="matrix(0.0153211,0,0,0.0153211,-1183.6045,-6328.3038)"><g
                 id="Default-2"
                 style="fill:#000000;fill-opacity:1"
                 transform="translate(-4429.6,-8277.8)"><desc
                   id="desc3128-3">Master slide</desc></g><path
                 id="path3225-9"
                 style="fill:#000000;fill-opacity:1;fill-rule:nonzero"
                 d="m 10880,10820 a 1760,3040 0 1 1 -3520,0 1760,3040 0 1 1 3520,0 z"
                 transform="translate(-4589.6,-7780)" /><path
                 id="path3995-5"
                 style="fill:#000000;fill-opacity:1;fill-rule:nonzero"
                 d="m 10880,10820 a 1760,3040 0 1 1 -3520,0 1760,3040 0 1 1 3520,0 z"
                 transform="translate(-809.6,-7624.7)" /><path
                 id="path3997-3"
                 style="fill:#000000;fill-opacity:1;fill-rule:nonzero"
                 d="m 10880,10820 a 1760,3040 0 1 1 -3520,0 1760,3040 0 1 1 3520,0 z"
                 transform="matrix(0.8006,-0.14261,0.14261,0.8006,-7369.9,-832.22)" /><path
                 id="path3999-4"
                 style="fill:#000000;fill-opacity:1;fill-rule:nonzero"
                 d="m 10880,10820 a 1760,3040 0 1 1 -3520,0 1760,3040 0 1 1 3520,0 z"
                 transform="matrix(-0.83511,-0.14875,-0.14875,0.83511,20527,-1215)" /><path
                 id="path4007-6"
                 style="fill:#000000;fill-opacity:1;fill-rule:nonzero"
                 d="m 6370.4,6612.2 c -743.85,0 -1494.5,251.73 -1684.8,825.53 -190.3,573.8 -340.68,1275.9 -827.19,1762.4 -486.51,486.5 -821.04,453.09 -1463.7,670.53 -642.65,217.44 -1324.3,1063.4 -1324.3,2091.5 0,1028.1 1211.6,2192.7 1806.8,2192.7 595.24,0 991.82,-30.958 1092.2,-272 100.34,-241.04 300.92,-441.62 548.34,-441.62 247.42,0 448,200.58 617.64,420.92 169.64,220.34 562.22,317.83 1021.8,317.83 459.58,0 986.65,-59.119 1193.6,-305.84 207,-246.72 282.02,-432.91 526.91,-432.91 244.9,0 448,200.58 665.49,516.38 217.49,315.8 708.39,258.86 1204.5,241.18 496.11,-17.677 1647.7,-1127 1647.7,-2086.6 0,-959.63 -354.46,-1702 -917.16,-1945.3 -562.69,-243.3 -1022.5,-93.332 -1545.8,-616.69 -523.36,-523.36 -558.81,-1678.9 -867.88,-2112.2 -309.06,-433.26 -950.3,-825.81 -1694.2,-825.81 z" /></g></g></g></g></g></g></svg>
